<?xml version="1.0" encoding="UTF-8"?>
<!DOCTYPE svg PUBLIC "-//W3C//DTD SVG 1.1//EN" "http://www.w3.org/Graphics/SVG/1.1/DTD/svg11.dtd">
<svg xmlns="http://www.w3.org/2000/svg" version="1.1" width="48px" height="48px" style="shape-rendering:geometricPrecision; text-rendering:geometricPrecision; image-rendering:optimizeQuality; fill-rule:evenodd; clip-rule:evenodd" xmlns:xlink="http://www.w3.org/1999/xlink">
<g><path style="opacity:1" fill="#8d8d8d" d="M 23.5,0.5 C 23.5,0.166667 23.5,-0.166667 23.5,-0.5C 26.5,-0.5 29.5,-0.5 32.5,-0.5C 32.5,-0.166667 32.5,0.166667 32.5,0.5C 29.3243,0.891999 26.3243,0.891999 23.5,0.5 Z"/></g>
<g><path style="opacity:1" fill="#dadf8e" d="M 23.5,0.5 C 26.3243,0.891999 29.3243,0.891999 32.5,0.5C 33.0906,1.15149 33.7573,1.81815 34.5,2.5C 32.5335,5.97976 30.8669,9.97976 29.5,14.5C 28.1667,14.5 26.8333,14.5 25.5,14.5C 25.1909,10.7786 24.1909,7.2786 22.5,4C 22.6191,2.85516 22.9524,1.68849 23.5,0.5 Z"/></g>
<g><path style="opacity:1" fill="#89c3a0" d="M 23.5,0.5 C 22.9524,1.68849 22.6191,2.85516 22.5,4C 24.1909,7.2786 25.1909,10.7786 25.5,14.5C 24.8333,14.1667 24.1667,13.8333 23.5,13.5C 21.1792,10.2041 18.8458,6.87076 16.5,3.5C 18.4261,1.70732 20.7594,0.707317 23.5,0.5 Z"/></g>
<g><path style="opacity:1" fill="#4097c5" d="M 16.5,3.5 C 18.8458,6.87076 21.1792,10.2041 23.5,13.5C 23.5,14.1667 23.5,14.8333 23.5,15.5C 20.1667,12.5 16.8333,9.5 13.5,6.5C 14.1667,5.16667 15.1667,4.16667 16.5,3.5 Z"/></g>
<g><path style="opacity:1" fill="#9f9fa0" d="M 32.5,0.5 C 38.2417,1.24902 42.2417,4.24902 44.5,9.5C 43.3181,7.90049 41.9847,7.56716 40.5,8.5C 39.8076,7.97473 39.3076,7.30806 39,6.5C 37.1667,9 35.3333,11.5 33.5,14C 34.5018,15.1563 35.5018,15.6563 36.5,15.5C 34.6907,16.2907 32.6907,16.2907 30.5,15.5C 30.5,14.8333 30.1667,14.5 29.5,14.5C 30.8669,9.97976 32.5335,5.97976 34.5,2.5C 33.7573,1.81815 33.0906,1.15149 32.5,0.5 Z"/></g>
<g><path style="opacity:1" fill="#8ce3bb" d="M 13.5,6.5 C 16.8333,9.5 20.1667,12.5 23.5,15.5C 22.8902,16.391 22.5569,17.391 22.5,18.5C 18.9469,16.6461 15.2803,14.9795 11.5,13.5C 10.7025,13.0431 10.3691,12.3764 10.5,11.5C 10.7497,9.32604 11.7497,7.65938 13.5,6.5 Z"/></g>
<g><path style="opacity:1" fill="#dedede" d="M 44.5,9.5 C 44.719,10.675 44.3857,11.675 43.5,12.5C 41.2195,13.7019 38.8862,14.7019 36.5,15.5C 35.5018,15.6563 34.5018,15.1563 33.5,14C 35.3333,11.5 37.1667,9 39,6.5C 39.3076,7.30806 39.8076,7.97473 40.5,8.5C 41.9847,7.56716 43.3181,7.90049 44.5,9.5 Z"/></g>
<g><path style="opacity:1" fill="#555b5d" d="M 23.5,13.5 C 24.1667,13.8333 24.8333,14.1667 25.5,14.5C 26.8333,14.5 28.1667,14.5 29.5,14.5C 30.1667,14.5 30.5,14.8333 30.5,15.5C 25.9999,15.1638 24.1666,17.1638 25,21.5C 27.494,24.0858 29.994,24.0858 32.5,21.5C 32.5,22.5 32.5,23.5 32.5,24.5C 31.8333,24.8333 31.1667,25.1667 30.5,25.5C 29.5,25.5 28.5,25.5 27.5,25.5C 26.2921,24.7659 24.9587,24.4326 23.5,24.5C 23.1667,22.5 22.8333,20.5 22.5,18.5C 22.5569,17.391 22.8902,16.391 23.5,15.5C 23.5,14.8333 23.5,14.1667 23.5,13.5 Z"/></g>
<g><path style="opacity:1" fill="#828284" d="M 44.5,9.5 C 45.6873,11.0725 46.6873,12.7392 47.5,14.5C 47.5,17.5 47.5,20.5 47.5,23.5C 47.1667,23.5 46.8333,23.5 46.5,23.5C 46.6567,22.1266 46.49,20.7932 46,19.5C 42.6667,20.8333 39.3333,20.8333 36,19.5C 35.2828,20.0442 34.7828,20.7109 34.5,21.5C 34.1667,21.5 33.8333,21.5 33.5,21.5C 33.1667,21.5 32.8333,21.5 32.5,21.5C 32.7475,19.1417 32.0808,17.1417 30.5,15.5C 32.6907,16.2907 34.6907,16.2907 36.5,15.5C 38.8862,14.7019 41.2195,13.7019 43.5,12.5C 44.3857,11.675 44.719,10.675 44.5,9.5 Z"/></g>
<g><path style="opacity:1" fill="#b7b7b7" d="M 10.5,11.5 C 10.3691,12.3764 10.7025,13.0431 11.5,13.5C 15.2803,14.9795 18.9469,16.6461 22.5,18.5C 22.8333,20.5 23.1667,22.5 23.5,24.5C 19.9523,25.6072 16.6189,27.2738 13.5,29.5C 11.6478,27.7813 10.3145,25.7813 9.5,23.5C 8.84182,22.2067 8.50848,20.7067 8.5,19C 8.40778,16.1789 9.07445,13.6789 10.5,11.5 Z"/></g>
<g><path style="opacity:1" fill="#c8cdc8" d="M 46.5,23.5 C 46.7373,24.791 46.404,25.791 45.5,26.5C 45.6495,25.448 45.4828,24.448 45,23.5C 43.3333,23.8333 41.6667,24.1667 40,24.5C 38.1772,23.6883 36.3439,22.6883 34.5,21.5C 34.7828,20.7109 35.2828,20.0442 36,19.5C 39.3333,20.8333 42.6667,20.8333 46,19.5C 46.49,20.7932 46.6567,22.1266 46.5,23.5 Z"/></g>
<g><path style="opacity:1" fill="#9ef1bf" d="M 33.5,21.5 C 33.8333,21.5 34.1667,21.5 34.5,21.5C 36.3439,22.6883 38.1772,23.6883 40,24.5C 41.6667,24.1667 43.3333,23.8333 45,23.5C 45.4828,24.448 45.6495,25.448 45.5,26.5C 43.461,27.6718 42.1276,29.3384 41.5,31.5C 39.1667,28.5 36.5,25.8333 33.5,23.5C 33.5,22.8333 33.5,22.1667 33.5,21.5 Z"/></g>
<g><path style="opacity:1" fill="#818182" d="M 9.5,23.5 C 10.3145,25.7813 11.6478,27.7813 13.5,29.5C 16.6189,27.2738 19.9523,25.6072 23.5,24.5C 21.7801,27.7311 19.4468,30.5644 16.5,33C 18.0931,33.9487 19.4264,35.1154 20.5,36.5C 14.9066,36.1934 9.40655,36.5268 4,37.5C 3.51722,36.552 3.35055,35.552 3.5,34.5C 7.51383,34.6655 11.5138,34.4988 15.5,34C 11.4733,29.803 6.47332,28.303 0.5,29.5C 1.2899,28.2058 2.2899,27.0391 3.5,26C 6.05119,25.9977 8.05119,25.1644 9.5,23.5 Z"/></g>
<g><path style="opacity:1" fill="#e9f29e" d="M 27.5,25.5 C 28.5,25.5 29.5,25.5 30.5,25.5C 32.9312,27.0682 32.9312,28.5682 30.5,30C 32.3008,30.3173 32.6341,30.984 31.5,32C 32.1667,32.6667 32.8333,33.3333 33.5,34C 32.4019,34.7697 32.4019,35.603 33.5,36.5C 31.6208,37.3414 29.6208,37.6747 27.5,37.5C 27.0472,36.5416 26.3805,35.7083 25.5,35C 26.311,32.2803 26.311,29.7803 25.5,27.5C 26.2427,26.8182 26.9094,26.1515 27.5,25.5 Z"/></g>
<g><path style="opacity:1" fill="#bbbbba" d="M 23.5,24.5 C 24.9587,24.4326 26.2921,24.7659 27.5,25.5C 26.9094,26.1515 26.2427,26.8182 25.5,27.5C 26.311,29.7803 26.311,32.2803 25.5,35C 26.3805,35.7083 27.0472,36.5416 27.5,37.5C 25.8008,37.3398 24.1341,37.5065 22.5,38C 23.2438,39.0386 24.2438,39.5386 25.5,39.5C 25.9528,40.4584 26.6195,41.2917 27.5,42C 25.0632,43.3747 22.3965,43.8747 19.5,43.5C 20.4845,41.4021 20.1511,39.4021 18.5,37.5C 19.4916,37.6716 20.1583,37.3382 20.5,36.5C 19.4264,35.1154 18.0931,33.9487 16.5,33C 19.4468,30.5644 21.7801,27.7311 23.5,24.5 Z"/></g>
<g><path style="opacity:1" fill="#5cc8c8" d="M 33.5,23.5 C 36.5,25.8333 39.1667,28.5 41.5,31.5C 41.5,32.1667 41.1667,32.5 40.5,32.5C 37.4442,30.0515 35.1108,27.0515 33.5,23.5 Z"/></g>
<g><path style="opacity:1" fill="#90cea7" d="M 32.5,24.5 C 34.1534,27.8068 35.8201,31.1401 37.5,34.5C 36.4863,35.6737 35.153,36.3404 33.5,36.5C 32.4019,35.603 32.4019,34.7697 33.5,34C 32.8333,33.3333 32.1667,32.6667 31.5,32C 32.6341,30.984 32.3008,30.3173 30.5,30C 32.9312,28.5682 32.9312,27.0682 30.5,25.5C 31.1667,25.1667 31.8333,24.8333 32.5,24.5 Z"/></g>
<g><path style="opacity:1" fill="#e2e2e2" d="M 0.5,29.5 C 6.47332,28.303 11.4733,29.803 15.5,34C 11.5138,34.4988 7.51383,34.6655 3.5,34.5C 3.35055,35.552 3.51722,36.552 4,37.5C 9.40655,36.5268 14.9066,36.1934 20.5,36.5C 20.1583,37.3382 19.4916,37.6716 18.5,37.5C 14.8405,37.1588 11.5072,37.8255 8.5,39.5C 7.12656,39.3433 5.79323,39.51 4.5,40C 5.0442,40.7172 5.71087,41.2172 6.5,41.5C 6.16667,42.1667 5.83333,42.8333 5.5,43.5C 3.85613,43.2865 2.35613,43.6198 1,44.5C 0.500738,39.5111 0.334072,34.5111 0.5,29.5 Z"/></g>
<g><path style="opacity:1" fill="#2d98ca" d="M 32.5,21.5 C 32.8333,21.5 33.1667,21.5 33.5,21.5C 33.5,22.1667 33.5,22.8333 33.5,23.5C 35.1108,27.0515 37.4442,30.0515 40.5,32.5C 40.0269,33.9063 39.0269,34.573 37.5,34.5C 35.8201,31.1401 34.1534,27.8068 32.5,24.5C 32.5,23.5 32.5,22.5 32.5,21.5 Z"/></g>
<g><path style="opacity:1" fill="#333333" d="M 45.5,26.5 C 44.9254,31.9687 44.2588,37.3021 43.5,42.5C 43.665,39.1501 43.4983,35.8168 43,32.5C 38.3313,37.7512 32.4979,40.0846 25.5,39.5C 24.2438,39.5386 23.2438,39.0386 22.5,38C 24.1341,37.5065 25.8008,37.3398 27.5,37.5C 29.6208,37.6747 31.6208,37.3414 33.5,36.5C 35.153,36.3404 36.4863,35.6737 37.5,34.5C 39.0269,34.573 40.0269,33.9063 40.5,32.5C 41.1667,32.5 41.5,32.1667 41.5,31.5C 42.1276,29.3384 43.461,27.6718 45.5,26.5 Z"/></g>
<g><path style="opacity:1" fill="#7c7c7d" d="M -0.5,29.5 C -0.166667,29.5 0.166667,29.5 0.5,29.5C 0.334072,34.5111 0.500738,39.5111 1,44.5C 2.35613,43.6198 3.85613,43.2865 5.5,43.5C 10.1667,43.5 14.8333,43.5 19.5,43.5C 22.3965,43.8747 25.0632,43.3747 27.5,42C 26.6195,41.2917 25.9528,40.4584 25.5,39.5C 32.4979,40.0846 38.3313,37.7512 43,32.5C 43.4983,35.8168 43.665,39.1501 43.5,42.5C 42.7101,43.7942 41.7101,44.9609 40.5,46C 26.7584,46.814 13.0917,46.6473 -0.5,45.5C -0.5,40.1667 -0.5,34.8333 -0.5,29.5 Z"/></g>
<g><path style="opacity:1" fill="#c9c9c9" d="M 18.5,37.5 C 20.1511,39.4021 20.4845,41.4021 19.5,43.5C 14.8333,43.5 10.1667,43.5 5.5,43.5C 5.83333,42.8333 6.16667,42.1667 6.5,41.5C 7.83333,41.5 8.5,40.8333 8.5,39.5C 11.5072,37.8255 14.8405,37.1588 18.5,37.5 Z"/></g>
<g><path style="opacity:1" fill="#198628" d="M 8.5,39.5 C 8.5,40.8333 7.83333,41.5 6.5,41.5C 5.71087,41.2172 5.0442,40.7172 4.5,40C 5.79323,39.51 7.12656,39.3433 8.5,39.5 Z"/></g>
</svg>
