<?xml version="1.0" encoding="UTF-8"?>
<!DOCTYPE svg PUBLIC "-//W3C//DTD SVG 1.1//EN" "http://www.w3.org/Graphics/SVG/1.1/DTD/svg11.dtd">
<svg xmlns="http://www.w3.org/2000/svg" version="1.1" width="48px" height="48px" style="shape-rendering:geometricPrecision; text-rendering:geometricPrecision; image-rendering:optimizeQuality; fill-rule:evenodd; clip-rule:evenodd" xmlns:xlink="http://www.w3.org/1999/xlink">
<g><path style="opacity:1" fill="#7b037b" d="M 22.5,1.5 C 23.2506,0.426544 24.2506,0.259877 25.5,1C 32.7337,4.78417 40.067,8.28417 47.5,11.5C 47.5,12.5 47.5,13.5 47.5,14.5C 47.1667,14.5 46.8333,14.5 46.5,14.5C 39.4922,21.3412 32.3256,28.0079 25,34.5C 17.8717,31.0183 10.705,27.685 3.5,24.5C 3.5,23.8333 3.16667,23.5 2.5,23.5C 9.29743,16.2018 16.2974,9.03511 23.5,2C 23.2716,1.60123 22.9382,1.43456 22.5,1.5 Z"/></g>
<g><path style="opacity:1" fill="#836180" d="M 22.5,1.5 C 22.9382,1.43456 23.2716,1.60123 23.5,2C 16.2974,9.03511 9.29743,16.2018 2.5,23.5C 1.83333,23.5 1.16667,23.5 0.5,23.5C 7.5,15.8333 14.8333,8.5 22.5,1.5 Z"/></g>
<g><path style="opacity:1" fill="#d5d40c" d="M 24.5,9.5 C 29.4451,8.31065 32.7784,9.97731 34.5,14.5C 32.3121,18.6992 28.8121,21.3659 24,22.5C 22.7753,22.1377 21.6086,21.6377 20.5,21C 23.8263,18.7369 27.1597,16.5703 30.5,14.5C 30.0004,13.1195 29.0004,12.4528 27.5,12.5C 25.5259,13.7041 23.5259,14.5375 21.5,15C 20.5494,14.2825 20.3828,13.4491 21,12.5C 22.1451,11.3636 23.3117,10.3636 24.5,9.5 Z"/></g>
<g><path style="opacity:1" fill="#bcbcbc" d="M 45.5,25.5 C 39.1877,31.1457 33.1877,37.1457 27.5,43.5C 26.3864,44.7759 25.3864,44.7759 24.5,43.5C 26.3435,41.7211 27.0102,39.3878 26.5,36.5C 25.209,36.7373 24.209,36.404 23.5,35.5C 24.8734,35.6567 26.2068,35.49 27.5,35C 33.3333,29.1667 39.1667,23.3333 45,17.5C 45.4974,20.146 45.6641,22.8127 45.5,25.5 Z"/></g>
<g><path style="opacity:1" fill="#dfdf00" d="M 17.5,23.5 C 18.8333,23.5 20.1667,23.5 21.5,23.5C 21.5,24.8333 21.5,26.1667 21.5,27.5C 20.1667,27.5 18.8333,27.5 17.5,27.5C 17.5,26.1667 17.5,24.8333 17.5,23.5 Z"/></g>
<g><path style="opacity:1" fill="#414141" d="M 46.5,14.5 C 46.1872,18.0419 46.5206,21.3752 47.5,24.5C 47.5,25.1667 47.5,25.8333 47.5,26.5C 47.1667,26.5 46.8333,26.5 46.5,26.5C 46.5,25.8333 46.1667,25.5 45.5,25.5C 45.6641,22.8127 45.4974,20.146 45,17.5C 39.1667,23.3333 33.3333,29.1667 27.5,35C 26.2068,35.49 24.8734,35.6567 23.5,35.5C 16.1204,32.8169 9.45374,29.1502 3.5,24.5C 10.705,27.685 17.8717,31.0183 25,34.5C 32.3256,28.0079 39.4922,21.3412 46.5,14.5 Z"/></g>
<g><path style="opacity:1" fill="#e7e7e7" d="M 3.5,24.5 C 9.45374,29.1502 16.1204,32.8169 23.5,35.5C 24.209,36.404 25.209,36.7373 26.5,36.5C 27.0102,39.3878 26.3435,41.7211 24.5,43.5C 17.067,40.2842 9.73368,36.7842 2.5,33C 1.88407,31.5998 1.55074,30.0998 1.5,28.5C 1.58544,26.6672 2.2521,25.3339 3.5,24.5 Z"/></g>
<g><path style="opacity:1" fill="#40113f" d="M -0.5,23.5 C -0.166667,23.5 0.166667,23.5 0.5,23.5C 1.16667,23.5 1.83333,23.5 2.5,23.5C 3.16667,23.5 3.5,23.8333 3.5,24.5C 2.2521,25.3339 1.58544,26.6672 1.5,28.5C 1.55074,30.0998 1.88407,31.5998 2.5,33C 9.73368,36.7842 17.067,40.2842 24.5,43.5C 25.3864,44.7759 26.3864,44.7759 27.5,43.5C 33.1877,37.1457 39.1877,31.1457 45.5,25.5C 46.1667,25.5 46.5,25.8333 46.5,26.5C 40.1588,33.6746 33.3254,40.3413 26,46.5C 17.0788,42.2892 8.24544,37.9558 -0.5,33.5C -0.5,30.1667 -0.5,26.8333 -0.5,23.5 Z"/></g>
</svg>
