<?xml version="1.0" encoding="UTF-8"?>
<!DOCTYPE svg PUBLIC "-//W3C//DTD SVG 1.1//EN" "http://www.w3.org/Graphics/SVG/1.1/DTD/svg11.dtd">
<svg xmlns="http://www.w3.org/2000/svg" version="1.1" width="32px" height="32px" style="shape-rendering:geometricPrecision; text-rendering:geometricPrecision; image-rendering:optimizeQuality; fill-rule:evenodd; clip-rule:evenodd" xmlns:xlink="http://www.w3.org/1999/xlink">
<g><path style="opacity:1" fill="#000000" d="M 18.5,4.5 C 22.2568,4.07083 25.7568,4.73749 29,6.5C 29.8306,12.8595 29.6639,19.1928 28.5,25.5C 24.5,22.8333 20.5,22.8333 16.5,25.5C 15.3361,19.1928 15.1694,12.8595 16,6.5C 16.9947,5.93406 17.828,5.26739 18.5,4.5 Z"/></g>
<g><path style="opacity:1" fill="#000000" d="M 0.5,6.5 C 1.52502,6.89657 1.69169,7.56323 1,8.5C 0.535656,7.90558 0.368989,7.23891 0.5,6.5 Z"/></g>
<g><path style="opacity:1" fill="#000000" d="M 13.5,6.5 C 14.7103,8.1764 14.2103,9.50973 12,10.5C 11.516,8.80666 12.016,7.47332 13.5,6.5 Z"/></g>
<g><path style="opacity:1" fill="#000000" d="M 3.5,7.5 C 4.71251,8.49711 4.54585,9.49711 3,10.5C 2.53042,9.42317 2.69708,8.42317 3.5,7.5 Z"/></g>
<g><path style="opacity:1" fill="#000000" d="M 9.5,11.5 C 8.2035,10.1512 8.37017,8.81787 10,7.5C 10.5791,8.92847 10.4124,10.2618 9.5,11.5 Z"/></g>
<g><path style="opacity:1" fill="#f20000" d="M 18.5,7.5 C 19.5,7.5 20.5,7.5 21.5,7.5C 21.9231,10.2882 20.9231,12.2882 18.5,13.5C 17.3058,11.4844 17.3058,9.48436 18.5,7.5 Z"/></g>
<g><path style="opacity:1" fill="#00f200" d="M 23.5,7.5 C 27.3948,7.85734 28.3948,9.85734 26.5,13.5C 24.0769,12.2882 23.0769,10.2882 23.5,7.5 Z"/></g>
<g><path style="opacity:1" fill="#000000" d="M 6.5,8.5 C 7.71251,9.49711 7.54585,10.4971 6,11.5C 5.53042,10.4232 5.69708,9.42317 6.5,8.5 Z"/></g>
<g><path style="opacity:1" fill="#fe0000" d="M 0.5,10.5 C 1.52502,10.8966 1.69169,11.5632 1,12.5C 0.535656,11.9056 0.368989,11.2389 0.5,10.5 Z"/></g>
<g><path style="opacity:1" fill="#fe0000" d="M 13.5,10.5 C 14.7103,12.1764 14.2103,13.5097 12,14.5C 11.516,12.8067 12.016,11.4733 13.5,10.5 Z"/></g>
<g><path style="opacity:1" fill="#fe0000" d="M 3.5,11.5 C 4.71251,12.4971 4.54585,13.4971 3,14.5C 2.53042,13.4232 2.69708,12.4232 3.5,11.5 Z"/></g>
<g><path style="opacity:1" fill="#fe0000" d="M 9.5,11.5 C 10.6857,12.7054 10.6857,14.0387 9.5,15.5C 8.31434,14.2946 8.31434,12.9613 9.5,11.5 Z"/></g>
<g><path style="opacity:1" fill="#fe0000" d="M 6.5,12.5 C 7.71251,13.4971 7.54585,14.4971 6,15.5C 5.53042,14.4232 5.69708,13.4232 6.5,12.5 Z"/></g>
<g><path style="opacity:1" fill="#000000" d="M 0.5,14.5 C 1.52502,14.8966 1.69169,15.5632 1,16.5C 0.535656,15.9056 0.368989,15.2389 0.5,14.5 Z"/></g>
<g><path style="opacity:1" fill="#000000" d="M 13.5,14.5 C 14.7103,16.1764 14.2103,17.5097 12,18.5C 11.516,16.8067 12.016,15.4733 13.5,14.5 Z"/></g>
<g><path style="opacity:1" fill="#000000" d="M 3.5,15.5 C 4.71251,16.4971 4.54585,17.4971 3,18.5C 2.53042,17.4232 2.69708,16.4232 3.5,15.5 Z"/></g>
<g><path style="opacity:1" fill="#000000" d="M 9.5,15.5 C 10.6857,16.7054 10.6857,18.0387 9.5,19.5C 8.31434,18.2946 8.31434,16.9613 9.5,15.5 Z"/></g>
<g><path style="opacity:1" fill="#0000f2" d="M 18.5,15.5 C 19.5,15.5 20.5,15.5 21.5,15.5C 21.9231,18.2882 20.9231,20.2882 18.5,21.5C 17.3058,19.4844 17.3058,17.4844 18.5,15.5 Z"/></g>
<g><path style="opacity:1" fill="#f2f200" d="M 23.5,15.5 C 27.3948,15.8573 28.3948,17.8573 26.5,21.5C 24.0769,20.2882 23.0769,18.2882 23.5,15.5 Z"/></g>
<g><path style="opacity:1" fill="#000000" d="M 6.5,16.5 C 7.71251,17.4971 7.54585,18.4971 6,19.5C 5.53042,18.4232 5.69708,17.4232 6.5,16.5 Z"/></g>
<g><path style="opacity:1" fill="#0000ff" d="M 0.5,18.5 C 1.52502,18.8966 1.69169,19.5632 1,20.5C 0.535656,19.9056 0.368989,19.2389 0.5,18.5 Z"/></g>
<g><path style="opacity:1" fill="#0000ff" d="M 13.5,18.5 C 14.7103,20.1764 14.2103,21.5097 12,22.5C 11.516,20.8067 12.016,19.4733 13.5,18.5 Z"/></g>
<g><path style="opacity:1" fill="#0000ff" d="M 3.5,19.5 C 4.71251,20.4971 4.54585,21.4971 3,22.5C 2.53042,21.4232 2.69708,20.4232 3.5,19.5 Z"/></g>
<g><path style="opacity:1" fill="#0000ff" d="M 9.5,19.5 C 10.6857,20.7054 10.6857,22.0387 9.5,23.5C 8.31434,22.2946 8.31434,20.9613 9.5,19.5 Z"/></g>
<g><path style="opacity:1" fill="#0000ff" d="M 6.5,20.5 C 7.71251,21.4971 7.54585,22.4971 6,23.5C 5.53042,22.4232 5.69708,21.4232 6.5,20.5 Z"/></g>
<g><path style="opacity:1" fill="#000000" d="M 0.5,22.5 C 1.52502,22.8966 1.69169,23.5632 1,24.5C 0.535656,23.9056 0.368989,23.2389 0.5,22.5 Z"/></g>
<g><path style="opacity:1" fill="#000000" d="M 13.5,22.5 C 14.7103,24.1764 14.2103,25.5097 12,26.5C 11.516,24.8067 12.016,23.4733 13.5,22.5 Z"/></g>
<g><path style="opacity:1" fill="#000000" d="M 3.5,23.5 C 4.71251,24.4971 4.54585,25.4971 3,26.5C 2.53042,25.4232 2.69708,24.4232 3.5,23.5 Z"/></g>
<g><path style="opacity:1" fill="#000000" d="M 9.5,23.5 C 10.7965,24.8488 10.6298,26.1821 9,27.5C 8.42094,26.0715 8.58761,24.7382 9.5,23.5 Z"/></g>
<g><path style="opacity:1" fill="#000000" d="M 6.5,24.5 C 7.71251,25.4971 7.54585,26.4971 6,27.5C 5.53042,26.4232 5.69708,25.4232 6.5,24.5 Z"/></g>
</svg>
